/* XPM */
static char * color_icon_xpm[] = {
"22 22 76 1",
" 	c None",
".	c #9E2A35",
"+	c #BD3334",
"@	c #BC3334",
"#	c #9E2935",
"$	c #812035",
"%	c #E84133",
"&	c #FA4732",
"*	c #6F1A35",
"=	c #F34532",
"-	c #CC3834",
";	c #000036",
">	c #0D3963",
",	c #206DA3",
"'	c #2883C0",
")	c #1C6194",
"!	c #B1AA29",
"~	c #ECE216",
"{	c #C6BE24",
"]	c #6C6732",
"^	c #11436F",
"/	c #2983C0",
"(	c #2A87C5",
"_	c #2478B1",
":	c #CB3834",
"<	c #D8CF1E",
"[	c #F3E913",
"}	c #7E7830",
"|	c #267DB8",
"1	c #624E76",
"2	c #A3852E",
"3	c #E1D81B",
"4	c #175382",
"5	c #2882BE",
"6	c #774265",
"7	c #9D6D30",
"8	c #EAE017",
"9	c #9A932D",
"0	c #1D6498",
"a	c #2984C2",
"b	c #236295",
"c	c #973D56",
"d	c #AA5C32",
"e	c #B4AB28",
"f	c #EFE515",
"g	c #B7AF27",
"h	c #1C6395",
"i	c #197469",
"j	c #1D8960",
"k	c #B7B027",
"l	c #17656F",
"m	c #26A870",
"n	c #2AB677",
"o	c #92973B",
"p	c #18637C",
"q	c #29B174",
"r	c #22865E",
"s	c #209465",
"t	c #29B375",
"u	c #738544",
"v	c #7D7830",
"w	c #1C6193",
"x	c #28B174",
"y	c #28AF74",
"z	c #5F844D",
"A	c #C6BD24",
"B	c #24A26C",
"C	c #1C845D",
"D	c #28B074",
"E	c #209365",
"F	c #0D4F46",
"G	c #115C4C",
"H	c #26A970",
"I	c #115D4C",
"J	c #177255",
"K	c #1D8860",
"         .+@#         ",
"       $%&&&&%$       ",
"      *=&&&&&&=*      ",
"      -&&&&&&&&-      ",
"     ;=&&&&&&&&=;     ",
"    ;;&&&&&&&&&&;;    ",
"  >,')=&&&&&&&&=!~{]  ",
" ^/((_-&&&&&&&&:<[[~} ",
" |((((1=&&&&&&=2[[[[3 ",
"4(((((56%&&&&%78[[[[[9",
"0((((((abc@@def[[[[[[g",
"0((((((ahijk[[[[[[[[[g",
"4(((((5lmnno[[[[[[[[[9",
" |((((pqnnnr3[[[[[[[3 ",
" ^/((_snnnntu~[[[[[~v ",
"  >,'wxnnnnnyzA~[~{]  ",
"    ;;nnnnnnnnBC;;    ",
"     ;DnnnnnnnnD;     ",
"      snnnnnnnnE      ",
"      FqnnnnnnqF      ",
"       GmnnnnHI       ",
"         JKKJ         "};
