/* XPM */
static char * font_icon_xpm[] = {
"22 22 25 1",
" 	c None",
".	c #000036",
"+	c #000000",
"@	c #51000A",
"#	c #C60021",
"$	c #CA0022",
"%	c #9E0019",
"&	c #DB0026",
"*	c #C60022",
"=	c #D70025",
"-	c #53000A",
";	c #DA0026",
">	c #64000C",
",	c #7B0011",
"'	c #830013",
")	c #AE001C",
"!	c #B7001E",
"~	c #C70022",
"{	c #52000A",
"]	c #530009",
"^	c #D90026",
"/	c #5D000C",
"(	c #6D000D",
"_	c #AA001B",
":	c #D80025",
"......................",
".      +++++++++++++ .",
".     ++++++++++++++ .",
".     ++++++++++++++ .",
".     ++++@########$ .",
".    +++++%&&&&&&&&& .",
".    +++++*&&&&&&&&= .",
".    ++++-;          .",
".   +++++>,++++++    .",
".   +++++++++++++    .",
".   +++++++++++++    .",
".  +++++')))))))!    .",
".  +++++~&&&&&&&&    .",
".  ++++{&&&&&&&&;    .",
". +++++%             .",
". +++++*             .",
". ++++]^             .",
". /(((_              .",
". ;&&&&              .",
". &&&&:              .",
". &&&&               .",
"......................"};
