#define indicatorclose_width 11
#define indicatorclose_height 11
static unsigned char indicatorclose_bits[] = {
   0xff, 0x07, 0x01, 0x04, 0x01, 0x04, 0x01, 0x04, 0x01, 0x04, 0xfd, 0x05,
   0x01, 0x04, 0x01, 0x04, 0x01, 0x04, 0x01, 0x04, 0xff, 0x07 };
